<svg width="30" height="25" viewBox="0 0 30 25" fill="none" xmlns="http://www.w3.org/2000/svg">
<path d="M29.6227 3.65031C29.4693 3.43558 29.2239 3.31288 28.9479 3.31288H6.89264L6.24847 0.644172C6.15645 0.245399 5.81902 0 5.42025 0H1.52455C1.06442 0 0.665649 0.368098 0.665649 0.858896C0.665649 1.34969 1.06442 1.71779 1.52455 1.71779H4.7454L9.37731 20.8896C9.46933 21.2883 9.80675 21.5337 10.2055 21.5337H11.3405C10.8804 21.8712 10.543 22.4233 10.543 23.0675C10.543 24.1411 11.4018 25 12.4755 25C13.5491 25 14.408 24.1411 14.408 23.0675C14.408 22.4233 14.0706 21.9018 13.6104 21.5337H21.3712C20.911 21.8712 20.5736 22.4233 20.5736 23.0675C20.5736 24.1411 21.4325 25 22.5061 25C23.5798 25 24.4387 24.1411 24.4387 23.0675C24.4387 22.4233 24.1012 21.9018 23.6411 21.5337H24.1933C24.6534 21.5337 25.0522 21.1656 25.0522 20.6748C25.0522 20.2147 24.6534 19.816 24.1933 19.816H10.8804L10.3896 17.8221H25.8497C26.2485 17.8221 26.5859 17.546 26.6779 17.1779L29.7761 4.3865C29.8374 4.11043 29.7761 3.83436 29.6227 3.65031ZM15.4203 11.8405L15.1135 9.29448H20.0828L19.7761 11.8405H15.4203ZM19.5614 13.5583L19.2546 16.1043H15.911L15.6043 13.5583H19.5614ZM8.33436 9.29448H13.3957L13.7025 11.8405H8.94786L8.33436 9.29448ZM14.8988 7.57669L14.592 5.03067H20.5736L20.2669 7.57669H14.8988ZM12.8742 5.03067L13.181 7.57669H7.90491L7.29142 5.03067H12.8742ZM9.34663 13.5583H13.8865L14.1933 16.1043H9.96013L9.34663 13.5583ZM20.9724 16.1043L21.2791 13.5583H25.7884L25.1749 16.1043H20.9724ZM26.2178 11.8405H21.4939L21.8006 9.29448H26.8313L26.2178 11.8405ZM27.2301 7.57669H21.9847L22.2914 5.03067H27.8436L27.2301 7.57669Z" fill="#5326D4"/>
</svg>
