<svg width="28" height="28" viewBox="0 0 28 28" fill="none" xmlns="http://www.w3.org/2000/svg">
<path d="M14 0C6.27 0 0 6.27 0 14C0 17.66 1.44 21.18 4 23.8C4.33 24.13 4.67 24.44 5.03 24.74C5.39 25.05 5.76 25.33 6.16 25.59C10.89 28.8 17.11 28.8 21.84 25.59C22.24 25.33 22.61 25.05 22.97 24.74C23.33 24.44 23.67 24.13 24 23.8C29.41 18.28 29.32 9.41 23.8 4C21.18 1.44 17.66 0 14 0ZM14 26C11.07 26.01 8.25 24.94 6.06 22.99C6.62 18.6 10.63 15.5 15.01 16.06C18.63 16.52 21.47 19.37 21.94 22.99C19.75 24.94 16.93 26.01 14 26ZM11 11C11 9.34 12.34 8 14 8C15.66 8 17 9.34 17 11C17 12.66 15.66 14 14 14C12.35 14 11 12.65 11 11ZM23.6 21.2C22.71 18.16 20.43 15.72 17.45 14.62C19.45 12.71 19.52 9.55 17.62 7.55C15.72 5.55 12.55 5.48 10.55 7.38C8.55 9.28 8.48 12.45 10.38 14.45C10.43 14.51 10.49 14.56 10.55 14.62C7.57 15.72 5.29 18.16 4.4 21.2C0.42 15.9 1.5 8.38 6.8 4.4C12.1 0.42 19.62 1.5 23.6 6.8C26.8 11.07 26.8 16.93 23.6 21.2Z" fill="#5326D4"/>
</svg>
